HIERARCHY
ROOT Hips
{
	OFFSET 0 0 0
	CHANNELS 6 Xposition Yposition Zposition Yrotation Xrotation Zrotation
	JOINT Spine
	{
		OFFSET -0 8.2342 -2.62465
		CHANNELS 3 Yrotation Xrotation Zrotation
		JOINT Spine1
		{
			OFFSET -0 8.4478 0
			CHANNELS 3 Yrotation Xrotation Zrotation
			JOINT Spine2
			{
				OFFSET -0 8.4478 0
				CHANNELS 3 Yrotation Xrotation Zrotation
				JOINT Spine3
				{
					OFFSET -0 8.4478 0
					CHANNELS 3 Yrotation Xrotation Zrotation
					JOINT Neck
					{
						OFFSET -0 18.5512 3.62465
						CHANNELS 3 Yrotation Xrotation Zrotation
						JOINT Head
						{
							OFFSET -0 10.2927 0
							CHANNELS 3 Yrotation Xrotation Zrotation
							End Site
							{
								OFFSET 0 15 0
							}
						}
					}
					JOINT LeftShoulder
					{
						OFFSET 1.71546 6.41977 3.43091
						CHANNELS 3 Yrotation Xrotation Zrotation
						JOINT LeftArm
						{
							OFFSET 15.2902 0 0
							CHANNELS 3 Yrotation Xrotation Zrotation
							JOINT LeftForeArm
							{
								OFFSET 26.8549 0 0
								CHANNELS 3 Yrotation Xrotation Zrotation
								JOINT LeftHand
								{
									OFFSET 22.5821 0 0
									CHANNELS 3 Yrotation Xrotation Zrotation
									End Site
									{
										OFFSET 15 0 0
									}
								}
							}
						}
					}
					JOINT RightShoulder
					{
						OFFSET -1.71546 6.41977 3.43091
						CHANNELS 3 Yrotation Xrotation Zrotation
						JOINT RightArm
						{
							OFFSET -15.2902 0 0
							CHANNELS 3 Yrotation Xrotation Zrotation
							JOINT RightForeArm
							{
								OFFSET -26.8549 0 0
								CHANNELS 3 Yrotation Xrotation Zrotation
								JOINT RightHand
								{
									OFFSET -22.5821 0 0
									CHANNELS 3 Yrotation Xrotation Zrotation
									End Site
									{
										OFFSET -15 0 0
									}
								}
							}
						}
					}
				}
			}
		}
	}
	JOINT LeftUpLeg
	{
		OFFSET 10.2927 -3.43091 2
		CHANNELS 3 Yrotation Xrotation Zrotation
		JOINT LeftLeg
		{
			OFFSET -0 -38.9005 2.40164
			CHANNELS 3 Yrotation Xrotation Zrotation
			JOINT LeftFoot
			{
				OFFSET -0 -40.9638 -2.40164
				CHANNELS 3 Yrotation Xrotation Zrotation
				JOINT LeftToeBase
				{
					OFFSET -0 -6.62338 15.4391
					CHANNELS 3 Yrotation Xrotation Zrotation
					End Site
					{
						OFFSET 0 0 5
					}
				}
			}
		}
	}
	JOINT RightUpLeg
	{
		OFFSET -10.2927 -3.43091 2
		CHANNELS 3 Yrotation Xrotation Zrotation
		JOINT RightLeg
		{
			OFFSET -0 -38.9005 2.40164
			CHANNELS 3 Yrotation Xrotation Zrotation
			JOINT RightFoot
			{
				OFFSET -0 -40.9638 -2.40164
				CHANNELS 3 Yrotation Xrotation Zrotation
				JOINT RightToeBase
				{
					OFFSET -0 -6.62338 15.4391
					CHANNELS 3 Yrotation Xrotation Zrotation
					End Site
					{
						OFFSET 0 0 5
					}
				}
			}
		}
	}
}
MOTION
Frames: 6
Frame Time: 0.00833333
21.418259 87.782281 14.830127 -28.497817 -0.076015 11.225170 -0.853290 3.963059 -3.625833 -1.353072 2.961663 -2.268720 -1.102318 2.077259 -0.882446 -1.035455 1.361380 -0.237662 8.391266 -6.669775 -12.972564 2.995898 -13.301937 -6.302840 7.917999 2.566281 2.376962 -34.933931 -11.319242 -55.191173 -102.105093 20.884402 -7.441582 26.783800 6.825666 0.647312 -13.808001 5.920493 -2.583910 27.467211 -2.435076 59.879536 80.553993 32.096301 -22.780648 -8.943431 -9.578679 -26.601389 14.893975 -0.758505 -5.428306 0.000000 23.989493 0.000000 11.734056 -10.563345 -9.355270 0.000000 -7.581423 0.000000 -12.664552 -12.330533 -6.402866 0.000000 44.082449 0.000000 -18.576986 -17.768232 2.310003 0.000000 -10.949276 0.000000
21.650717 87.724219 14.851828 -29.100560 0.021364 11.002895 -0.864181 4.036418 -3.165620 -1.467631 2.816326 -2.272632 -1.181093 2.029898 -1.436396 -1.182976 1.379443 -0.194495 9.056684 -6.552147 -12.591650 3.358547 -13.562150 -6.466124 8.178194 2.957912 1.607861 -38.566204 -14.642751 -54.469199 -101.558256 20.442610 -7.126496 25.423431 5.290886 3.149134 -13.921764 5.919463 -2.648941 27.866204 -2.024158 61.078249 78.846850 30.699031 -20.831528 -9.624395 -8.376732 -26.608108 14.914147 -1.059988 -5.460171 0.000000 24.512500 0.000000 12.364515 -10.912378 -9.415548 0.000000 -7.429565 0.000000 -11.728657 -13.295604 -6.518772 0.000000 45.663621 0.000000 -17.964631 -16.912912 3.018862 0.000000 -11.555382 0.000000
21.769536 87.738062 14.855890 -29.531059 0.116366 10.639697 -0.908235 3.930461 -2.861807 -1.598001 2.857637 -2.191295 -1.339937 1.988974 -1.477900 -1.362471 1.417845 -0.535614 9.629969 -6.786501 -12.317789 3.632835 -13.346214 -6.298181 8.378984 3.342602 0.886115 -41.616204 -18.053425 -53.648770 -101.160441 19.174681 -7.373923 24.478507 5.454922 4.658065 -13.989062 5.600529 -2.698240 28.100507 -1.533132 62.530455 76.689160 29.762717 -18.821027 -10.271835 -7.088650 -25.675067 14.857386 -1.459128 -5.260937 0.000000 24.998002 0.000000 12.880245 -10.954802 -9.572286 0.000000 -7.410745 0.000000 -10.799918 -14.361894 -6.435610 0.000000 47.388552 0.000000 -17.259615 -15.430644 3.489249 0.000000 -12.074798 0.000000
21.848143 87.806104 14.828635 -29.883674 0.003091 10.293937 -1.115910 4.134137 -2.708673 -1.824279 2.819035 -2.117949 -1.510260 2.034783 -1.485102 -1.557573 1.295790 -0.797110 10.386447 -6.873788 -11.938151 4.013418 -13.321231 -6.251157 8.671457 3.736043 0.244987 -45.381036 -20.772549 -52.414181 -100.584884 18.739214 -7.147914 23.338374 4.298784 5.800107 -13.716488 5.299772 -2.724753 28.234943 -1.120361 63.912574 74.598394 28.751165 -16.839926 -11.563413 -6.429954 -24.446092 14.611489 -1.668067 -4.978417 0.000000 25.423479 0.000000 13.325414 -10.730617 -9.904789 0.000000 -7.616497 0.000000 -9.954225 -15.324153 -6.462529 0.000000 49.243388 0.000000 -15.974275 -13.528280 3.391799 0.000000 -12.739744 0.000000
21.865944 87.926074 14.816969 -30.173471 -0.167402 9.853306 -1.408320 4.209159 -2.563366 -2.138814 2.942670 -2.045345 -1.508920 2.081093 -1.527908 -1.592638 1.240943 -0.716890 10.993728 -6.908250 -11.870198 4.262193 -13.314761 -6.082639 8.604756 3.985793 -0.283092 -49.189896 -23.318223 -51.418335 -99.809378 17.955854 -6.987991 23.497651 3.887099 7.601661 -13.764000 5.061198 -2.872005 28.401733 -0.891361 65.003963 72.581456 27.363276 -14.403760 -11.475229 -6.506678 -23.993716 14.580423 -1.765881 -4.489587 0.000000 25.718586 0.000000 13.493484 -10.372347 -10.408534 0.000000 -7.928502 0.000000 -9.290482 -16.233943 -6.457114 0.000000 51.009932 0.000000 -14.223918 -11.409572 2.885280 0.000000 -13.228401 0.000000
21.839128 88.083649 14.794507 -30.451554 -0.376231 9.357109 -1.584781 4.324923 -2.495609 -2.325578 2.974133 -1.923185 -1.738340 2.221444 -1.307162 -1.811661 1.234039 -0.885445 11.629396 -7.033854 -11.697870 4.546465 -13.201196 -5.934367 8.570976 4.202890 -0.524856 -53.155576 -25.272340 -50.314578 -98.504319 17.088017 -6.094534 22.174282 4.843175 8.527477 -13.494047 5.093165 -2.981193 28.722340 -0.874666 65.962225 70.285277 25.806068 -12.271587 -11.600744 -6.379479 -23.831119 14.749554 -1.730168 -3.866237 0.000000 25.826047 0.000000 13.436336 -10.052377 -10.586919 0.000000 -7.953802 0.000000 -8.593074 -17.091376 -6.447396 0.000000 52.740420 0.000000 -12.309303 -9.214699 2.727253 0.000000 -12.991055 0.000000
